<svg width="28" height="28" viewBox="0 0 28 28" fill="none" xmlns="http://www.w3.org/2000/svg">
<path d="M14 0L16.9207 1.512L20.1722 2.0055L21.6457 4.9455L23.9855 7.2555L23.45 10.5L23.9855 13.7445L21.6457 16.0545L20.1722 18.9945L16.9207 19.488L14 21L11.0792 19.488L7.82775 18.9945L6.35425 16.0545L4.0145 13.7445L4.55 10.5L4.0145 7.2555L6.35425 4.9455L7.82775 2.0055L11.0792 1.512L14 0Z" fill="#03586A"/>
<path d="M7 20.6395V28L14 26.25L21 28V20.6395L17.4685 21.175L14 22.9705L10.5315 21.175L7 20.6395Z" fill="#03586A"/>
</svg>
