<svg width="50" height="50" viewBox="0 0 76 76" fill="none" xmlns="http://www.w3.org/2000/svg">
<mask id="mask0_49_864" style="mask-type:luminance" maskUnits="userSpaceOnUse" x="0" y="0" width="76" height="76">
<path d="M55.4419 1.01328e-05L0 20.1792L20.1792 75.6211L75.6211 55.4419L55.4419 1.01328e-05Z" fill="white"/>
</mask>
<g mask="url(#mask0_49_864)">
<path d="M66.1015 29.4753C65.9516 28.9589 65.7273 28.2591 65.5314 27.7209C65.3112 27.1159 65.0584 26.4965 64.7351 25.7725C61.6903 18.9736 56.1837 13.58 49.3226 10.6772C42.4618 7.77429 34.7561 7.57742 27.7561 10.1261C20.756 12.6749 14.9809 17.7802 11.5927 24.4148C8.20462 31.0494 7.45488 38.721 9.49441 45.886C11.5339 53.0509 16.2114 59.1778 22.5856 63.0334C28.9598 66.889 36.5578 68.1878 43.8508 66.6677C51.1438 65.148 57.5908 60.9226 61.8943 54.8417C66.1979 48.7608 68.0387 41.2757 67.0465 33.8925C67.0465 33.8925 67.0113 33.522 66.9387 33.0943C66.7459 32.0001 66.3773 30.3806 66.1015 29.4753ZM46.6393 62.0663C41.9158 63.787 36.7928 64.0913 31.899 62.9415C27.0052 61.7917 22.5536 59.2378 19.0909 55.5939C15.6281 51.9496 13.3048 47.3735 12.4061 42.4275C11.5075 37.4814 12.0728 32.3806 14.0324 27.7512C15.992 23.1218 19.2608 19.1654 23.4374 16.3676C27.614 13.5699 32.5166 12.0525 37.5435 12.0019C42.5702 11.9513 47.5024 13.3696 51.7346 16.0826C55.9667 18.7957 59.3143 22.6855 61.3668 27.2745C61.6163 27.8327 61.8543 28.3985 62.0667 28.982C62.279 29.5655 62.4604 30.1516 62.6279 30.7396L41.4258 38.4565C41.2848 39.2557 40.884 39.986 40.2857 40.5343C39.6873 41.0825 38.9247 41.418 38.1162 41.4887C37.3078 41.5593 36.4986 41.3613 35.8141 40.9252C35.1297 40.4892 34.6083 39.8395 34.3307 39.0769C34.0531 38.3143 34.035 37.4814 34.279 36.7074C34.523 35.9334 35.0156 35.2616 35.6803 34.7961C36.3451 34.3305 37.1449 34.0973 37.9557 34.1327C38.7664 34.168 39.5429 34.4699 40.1646 34.9914L57.8936 28.5386C55.5704 23.4985 51.439 19.5147 46.3176 17.3765C41.1964 15.2383 35.4586 15.1018 30.2412 16.9938C25.0238 18.8859 20.7074 22.6686 18.1471 27.5926C15.5868 32.5165 14.9694 38.2225 16.4171 43.5801C17.8648 48.9377 21.272 53.556 25.9639 56.5204C30.6558 59.4848 36.2899 60.5787 41.7501 59.5856C47.2103 58.5921 52.0982 55.5843 55.4459 51.1577C58.7935 46.7312 60.356 41.2088 59.8245 35.6844L63.3925 34.3858C64.1731 40.2183 62.9376 46.1421 59.8907 51.1764C56.8438 56.2106 52.1685 60.0527 46.6393 62.0663ZM34.0278 27.4165C32.2018 28.0786 30.5823 29.2098 29.3322 30.6964C28.082 32.1829 27.2454 33.9724 26.9063 35.8849C26.5673 37.7974 26.7378 39.7655 27.4007 41.5911C28.0636 43.4168 29.1956 45.0358 30.6827 46.2851C32.1698 47.5344 33.9598 48.3705 35.8725 48.7086C37.7851 49.0466 39.7531 48.8751 41.5785 48.2114C43.404 47.5478 45.0223 46.4148 46.2711 44.9272C47.5198 43.4392 48.3548 41.6493 48.692 39.7363L52.5336 38.3381C52.4124 41.7586 51.1054 45.0305 48.8368 47.5931C46.5679 50.1559 43.4784 51.8498 40.0978 52.3844C36.7171 52.9191 33.2557 52.2612 30.3068 50.5238C27.3578 48.7861 25.1051 46.0772 23.9344 42.861C22.7638 39.6447 22.7483 36.1215 23.8904 32.895C25.0326 29.6685 27.2613 26.9397 30.1948 25.1762C33.1282 23.4127 36.5836 22.7243 39.969 23.229C43.354 23.7338 46.4584 25.4001 48.7499 27.9425L44.9077 29.341C43.423 28.0929 41.6356 27.2579 39.7254 26.9201C37.8153 26.5823 35.8499 26.7536 34.0271 27.4168L34.0278 27.4165Z" fill="white"/>
<path d="M66.1015 29.4753C65.9516 28.9589 65.7273 28.2591 65.5314 27.7209C65.3112 27.1159 65.0584 26.4965 64.7351 25.7725C61.6903 18.9736 56.1837 13.58 49.3226 10.6772C42.4618 7.77429 34.7561 7.57742 27.7561 10.1261C20.756 12.6749 14.9809 17.7802 11.5927 24.4148C8.20462 31.0494 7.45488 38.721 9.49441 45.886C11.5339 53.0509 16.2114 59.1778 22.5856 63.0334C28.9598 66.889 36.5578 68.1878 43.8508 66.6677C51.1438 65.148 57.5908 60.9226 61.8943 54.8417C66.1979 48.7608 68.0387 41.2757 67.0465 33.8925C67.0465 33.8925 67.0113 33.522 66.9387 33.0943C66.7459 32.0001 66.3773 30.3806 66.1015 29.4753ZM46.6393 62.0663C41.9158 63.787 36.7928 64.0913 31.899 62.9415C27.0052 61.7917 22.5536 59.2378 19.0909 55.5939C15.6281 51.9496 13.3048 47.3735 12.4061 42.4275C11.5075 37.4814 12.0728 32.3806 14.0324 27.7512C15.992 23.1218 19.2608 19.1654 23.4374 16.3676C27.614 13.5699 32.5166 12.0525 37.5435 12.0019C42.5702 11.9513 47.5024 13.3696 51.7346 16.0826C55.9667 18.7957 59.3143 22.6855 61.3668 27.2745C61.6163 27.8327 61.8543 28.3985 62.0667 28.982C62.279 29.5655 62.4604 30.1516 62.6279 30.7396L41.4258 38.4565C41.2848 39.2557 40.884 39.986 40.2857 40.5343C39.6873 41.0825 38.9247 41.418 38.1162 41.4887C37.3078 41.5593 36.4986 41.3613 35.8141 40.9252C35.1297 40.4892 34.6083 39.8395 34.3307 39.0769C34.0531 38.3143 34.035 37.4814 34.279 36.7074C34.523 35.9334 35.0156 35.2616 35.6803 34.7961C36.3451 34.3305 37.1449 34.0973 37.9557 34.1327C38.7664 34.168 39.5429 34.4699 40.1646 34.9914L57.8936 28.5386C55.5704 23.4985 51.439 19.5147 46.3176 17.3765C41.1964 15.2383 35.4586 15.1018 30.2412 16.9938C25.0238 18.8859 20.7074 22.6686 18.1471 27.5926C15.5868 32.5165 14.9694 38.2225 16.4171 43.5801C17.8648 48.9377 21.272 53.556 25.9639 56.5204C30.6558 59.4848 36.2899 60.5787 41.7501 59.5856C47.2103 58.5921 52.0982 55.5843 55.4459 51.1577C58.7935 46.7312 60.356 41.2088 59.8245 35.6844L63.3925 34.3858C64.1731 40.2183 62.9376 46.1421 59.8907 51.1764C56.8438 56.2106 52.1685 60.0527 46.6393 62.0663ZM34.0278 27.4165C32.2018 28.0786 30.5823 29.2098 29.3322 30.6964C28.082 32.1829 27.2454 33.9724 26.9063 35.8849C26.5673 37.7974 26.7378 39.7655 27.4007 41.5911C28.0636 43.4168 29.1956 45.0358 30.6827 46.2851C32.1698 47.5344 33.9598 48.3705 35.8725 48.7086C37.7851 49.0466 39.7531 48.8751 41.5785 48.2114C43.404 47.5478 45.0223 46.4148 46.2711 44.9272C47.5198 43.4392 48.3548 41.6493 48.692 39.7363L52.5336 38.3381C52.4124 41.7586 51.1054 45.0305 48.8368 47.5931C46.5679 50.1559 43.4784 51.8498 40.0978 52.3844C36.7171 52.9191 33.2557 52.2612 30.3068 50.5238C27.3578 48.7861 25.1051 46.0772 23.9344 42.861C22.7638 39.6447 22.7483 36.1215 23.8904 32.895C25.0326 29.6685 27.2613 26.9397 30.1948 25.1762C33.1282 23.4127 36.5836 22.7243 39.969 23.229C43.354 23.7338 46.4584 25.4001 48.7499 27.9425L44.9077 29.341C43.423 28.0929 41.6356 27.2579 39.7254 26.9201C37.8153 26.5823 35.8499 26.7536 34.0271 27.4168L34.0278 27.4165Z" fill="#03586A" fill-opacity="0.2"/>
<path d="M66.1015 29.4753C65.9516 28.9589 65.7273 28.2591 65.5314 27.7209C65.3112 27.1159 65.0584 26.4965 64.7351 25.7725C61.6903 18.9736 56.1837 13.58 49.3226 10.6772C42.4618 7.77429 34.7561 7.57742 27.7561 10.1261C20.756 12.6749 14.9809 17.7802 11.5927 24.4148C8.20462 31.0494 7.45488 38.721 9.49441 45.886C11.5339 53.0509 16.2114 59.1778 22.5856 63.0334C28.9598 66.889 36.5578 68.1878 43.8508 66.6677C51.1438 65.148 57.5908 60.9226 61.8943 54.8417C66.1979 48.7608 68.0387 41.2757 67.0465 33.8925C67.0465 33.8925 67.0113 33.522 66.9387 33.0943C66.7459 32.0001 66.3773 30.3806 66.1015 29.4753ZM46.6393 62.0663C41.9158 63.787 36.7928 64.0913 31.899 62.9415C27.0052 61.7917 22.5536 59.2378 19.0909 55.5939C15.6281 51.9496 13.3048 47.3735 12.4061 42.4275C11.5075 37.4814 12.0728 32.3806 14.0324 27.7512C15.992 23.1218 19.2608 19.1654 23.4374 16.3676C27.614 13.5699 32.5166 12.0525 37.5435 12.0019C42.5702 11.9513 47.5024 13.3696 51.7346 16.0826C55.9667 18.7957 59.3143 22.6855 61.3668 27.2745C61.6163 27.8327 61.8543 28.3985 62.0667 28.982C62.279 29.5655 62.4604 30.1516 62.6279 30.7396L41.4258 38.4565C41.2848 39.2557 40.884 39.986 40.2857 40.5343C39.6873 41.0825 38.9247 41.418 38.1162 41.4887C37.3078 41.5593 36.4986 41.3613 35.8141 40.9252C35.1297 40.4892 34.6083 39.8395 34.3307 39.0769C34.0531 38.3143 34.035 37.4814 34.279 36.7074C34.523 35.9334 35.0156 35.2616 35.6803 34.7961C36.3451 34.3305 37.1449 34.0973 37.9557 34.1327C38.7664 34.168 39.5429 34.4699 40.1646 34.9914L57.8936 28.5386C55.5704 23.4985 51.439 19.5147 46.3176 17.3765C41.1964 15.2383 35.4586 15.1018 30.2412 16.9938C25.0238 18.8859 20.7074 22.6686 18.1471 27.5926C15.5868 32.5165 14.9694 38.2225 16.4171 43.5801C17.8648 48.9377 21.272 53.556 25.9639 56.5204C30.6558 59.4848 36.2899 60.5787 41.7501 59.5856C47.2103 58.5921 52.0982 55.5843 55.4459 51.1577C58.7935 46.7312 60.356 41.2088 59.8245 35.6844L63.3925 34.3858C64.1731 40.2183 62.9376 46.1421 59.8907 51.1764C56.8438 56.2106 52.1685 60.0527 46.6393 62.0663ZM34.0278 27.4165C32.2018 28.0786 30.5823 29.2098 29.3322 30.6964C28.082 32.1829 27.2454 33.9724 26.9063 35.8849C26.5673 37.7974 26.7378 39.7655 27.4007 41.5911C28.0636 43.4168 29.1956 45.0358 30.6827 46.2851C32.1698 47.5344 33.9598 48.3705 35.8725 48.7086C37.7851 49.0466 39.7531 48.8751 41.5785 48.2114C43.404 47.5478 45.0223 46.4148 46.2711 44.9272C47.5198 43.4392 48.3548 41.6493 48.692 39.7363L52.5336 38.3381C52.4124 41.7586 51.1054 45.0305 48.8368 47.5931C46.5679 50.1559 43.4784 51.8498 40.0978 52.3844C36.7171 52.9191 33.2557 52.2612 30.3068 50.5238C27.3578 48.7861 25.1051 46.0772 23.9344 42.861C22.7638 39.6447 22.7483 36.1215 23.8904 32.895C25.0326 29.6685 27.2613 26.9397 30.1948 25.1762C33.1282 23.4127 36.5836 22.7243 39.969 23.229C43.354 23.7338 46.4584 25.4001 48.7499 27.9425L44.9077 29.341C43.423 28.0929 41.6356 27.2579 39.7254 26.9201C37.8153 26.5823 35.8499 26.7536 34.0271 27.4168L34.0278 27.4165Z" fill="#D9D9D9"/>
</g>
</svg>
