<svg width="30" height="30" viewBox="0 0 30 30" fill="none" xmlns="http://www.w3.org/2000/svg">
<g clip-path="url(#clip0_32_10)">
<rect width="30" height="30" fill="#D9D9D9"/>
<path d="M15 28.125C11.519 28.125 8.18064 26.7422 5.71922 24.2808C3.25781 21.8194 1.875 18.481 1.875 15C1.875 11.519 3.25781 8.18064 5.71922 5.71922C8.18064 3.25781 11.519 1.875 15 1.875C18.481 1.875 21.8194 3.25781 24.2808 5.71922C26.7422 8.18064 28.125 11.519 28.125 15C28.125 18.481 26.7422 21.8194 24.2808 24.2808C21.8194 26.7422 18.481 28.125 15 28.125ZM15 30C18.9782 30 22.7936 28.4196 25.6066 25.6066C28.4196 22.7936 30 18.9782 30 15C30 11.0218 28.4196 7.20644 25.6066 4.3934C22.7936 1.58035 18.9782 0 15 0C11.0218 0 7.20644 1.58035 4.3934 4.3934C1.58035 7.20644 0 11.0218 0 15C0 18.9782 1.58035 22.7936 4.3934 25.6066C7.20644 28.4196 11.0218 30 15 30Z" fill="#03586A"/>
<path d="M15 24.375C12.5136 24.375 10.129 23.3873 8.37087 21.6291C6.61272 19.871 5.625 17.4864 5.625 15C5.625 12.5136 6.61272 10.129 8.37087 8.37087C10.129 6.61272 12.5136 5.625 15 5.625C17.4864 5.625 19.871 6.61272 21.6291 8.37087C23.3873 10.129 24.375 12.5136 24.375 15C24.375 17.4864 23.3873 19.871 21.6291 21.6291C19.871 23.3873 17.4864 24.375 15 24.375ZM15 26.25C16.4774 26.25 17.9403 25.959 19.3052 25.3936C20.6701 24.8283 21.9103 23.9996 22.955 22.955C23.9996 21.9103 24.8283 20.6701 25.3936 19.3052C25.959 17.9403 26.25 16.4774 26.25 15C26.25 13.5226 25.959 12.0597 25.3936 10.6948C24.8283 9.3299 23.9996 8.08971 22.955 7.04505C21.9103 6.00039 20.6701 5.17172 19.3052 4.60636C17.9403 4.04099 16.4774 3.75 15 3.75C12.0163 3.75 9.15483 4.93526 7.04505 7.04505C4.93526 9.15483 3.75 12.0163 3.75 15C3.75 17.9837 4.93526 20.8452 7.04505 22.955C9.15483 25.0647 12.0163 26.25 15 26.25Z" fill="#03586A"/>
<path d="M15 20.625C13.5082 20.625 12.0774 20.0324 11.0225 18.9775C9.96763 17.9226 9.375 16.4918 9.375 15C9.375 13.5082 9.96763 12.0774 11.0225 11.0225C12.0774 9.96763 13.5082 9.375 15 9.375C16.4918 9.375 17.9226 9.96763 18.9775 11.0225C20.0324 12.0774 20.625 13.5082 20.625 15C20.625 16.4918 20.0324 17.9226 18.9775 18.9775C17.9226 20.0324 16.4918 20.625 15 20.625ZM15 22.5C16.9891 22.5 18.8968 21.7098 20.3033 20.3033C21.7098 18.8968 22.5 16.9891 22.5 15C22.5 13.0109 21.7098 11.1032 20.3033 9.6967C18.8968 8.29018 16.9891 7.5 15 7.5C13.0109 7.5 11.1032 8.29018 9.6967 9.6967C8.29018 11.1032 7.5 13.0109 7.5 15C7.5 16.9891 8.29018 18.8968 9.6967 20.3033C11.1032 21.7098 13.0109 22.5 15 22.5Z" fill="#03586A"/>
<path d="M17.8125 15C17.8125 15.7459 17.5162 16.4613 16.9887 16.9887C16.4613 17.5162 15.7459 17.8125 15 17.8125C14.2541 17.8125 13.5387 17.5162 13.0113 16.9887C12.4838 16.4613 12.1875 15.7459 12.1875 15C12.1875 14.2541 12.4838 13.5387 13.0113 13.0113C13.5387 12.4838 14.2541 12.1875 15 12.1875C15.7459 12.1875 16.4613 12.4838 16.9887 13.0113C17.5162 13.5387 17.8125 14.2541 17.8125 15Z" fill="#03586A"/>
</g>
<defs>
<clipPath id="clip0_32_10">
<rect width="30" height="30" fill="white"/>
</clipPath>
</defs>
</svg>
