<svg width="28" height="28" viewBox="0 0 28 28" fill="none" xmlns="http://www.w3.org/2000/svg">
<g clip-path="url(#clip0_18_205)">
<path d="M17.5 3.50007C17.5002 4.27615 17.2424 5.0303 16.7673 5.64391C16.2921 6.25752 15.6264 6.69579 14.875 6.88982V15.7921C16.3853 15.9373 17.5 16.4518 17.5 17.0626C17.5 17.7871 15.9338 18.3751 14 18.3751C12.0663 18.3751 10.5 17.7871 10.5 17.0626C10.5 16.4501 11.6148 15.9373 13.125 15.7921V6.88982C12.4912 6.72617 11.916 6.38807 11.4647 5.91392C11.0134 5.43976 10.7042 4.84856 10.572 4.20745C10.4399 3.56634 10.4902 2.90103 10.7172 2.28708C10.9443 1.67313 11.3389 1.13515 11.8563 0.734235C12.3738 0.333322 12.9933 0.0855497 13.6445 0.0190589C14.2957 -0.0474319 14.9525 0.0700241 15.5403 0.358086C16.128 0.646148 16.6233 1.09327 16.9697 1.64867C17.3161 2.20407 17.4998 2.84549 17.5 3.50007Z" fill="#03586A"/>
<path d="M2.64775e-10 16.9138V19.9185C0.00017351 20.2434 0.0907954 20.5619 0.261717 20.8382C0.432638 21.1145 0.677109 21.3378 0.96775 21.483L12.4355 27.2178C12.9213 27.4605 13.4569 27.5869 14 27.5869C14.5431 27.5869 15.0787 27.4605 15.5645 27.2178L27.0322 21.483C27.3229 21.3378 27.5674 21.1145 27.7383 20.8382C27.9092 20.5619 27.9998 20.2434 28 19.9185V16.9138C28 16.7388 27.895 16.5813 27.734 16.5113L16.625 11.7513V13.489L25.7723 17.3005C25.8118 17.3171 25.8456 17.345 25.8694 17.3807C25.8932 17.4164 25.906 17.4583 25.9061 17.5012C25.9063 17.5441 25.8939 17.5861 25.8704 17.6219C25.8469 17.6578 25.8134 17.686 25.774 17.703L15.379 22.1585C14.9433 22.3453 14.4741 22.4416 14 22.4416C13.5259 22.4416 13.0567 22.3453 12.621 22.1585L2.226 17.703C2.18661 17.686 2.15309 17.6578 2.12959 17.6219C2.10609 17.5861 2.09367 17.5441 2.09385 17.5012C2.09404 17.4583 2.10683 17.4164 2.13064 17.3807C2.15445 17.345 2.18822 17.3171 2.22775 17.3005L11.375 13.489L11.3523 11.76L0.266 16.5113C0.187086 16.5449 0.119798 16.601 0.0725044 16.6725C0.0252103 16.7441 -2.98339e-06 16.828 2.64775e-10 16.9138Z" fill="#03586A"/>
</g>
<defs>
<clipPath id="clip0_18_205">
<rect width="28" height="28" fill="white"/>
</clipPath>
</defs>
</svg>
