<svg width="28" height="28" viewBox="0 0 28 28" fill="none" xmlns="http://www.w3.org/2000/svg">
<g clip-path="url(#clip0_18_197)">
<path fill-rule="evenodd" clip-rule="evenodd" d="M19.25 26.25C21.1065 26.25 22.887 25.5125 24.1997 24.1997C25.5125 22.887 26.25 21.1065 26.25 19.25C26.25 17.3935 25.5125 15.613 24.1997 14.3003C22.887 12.9875 21.1065 12.25 19.25 12.25C17.3935 12.25 15.613 12.9875 14.3003 14.3003C12.9875 15.613 12.25 17.3935 12.25 19.25C12.25 21.1065 12.9875 22.887 14.3003 24.1997C15.613 25.5125 17.3935 26.25 19.25 26.25ZM28 19.25C28 21.5706 27.0781 23.7962 25.4372 25.4372C23.7962 27.0781 21.5706 28 19.25 28C16.9294 28 14.7038 27.0781 13.0628 25.4372C11.4219 23.7962 10.5 21.5706 10.5 19.25C10.5 16.9294 11.4219 14.7038 13.0628 13.0628C14.7038 11.4219 16.9294 10.5 19.25 10.5C21.5706 10.5 23.7962 11.4219 25.4372 13.0628C27.0781 14.7038 28 16.9294 28 19.25Z" fill="#03586A"/>
<path d="M16.5165 20.902C16.5988 21.945 17.423 22.757 18.9018 22.855V23.625H19.558V22.8498C21.0893 22.743 21.9835 21.924 21.9835 20.7375C21.9835 19.656 21.301 19.0995 20.076 18.8125L19.558 18.69V16.59C20.216 16.6652 20.6325 17.024 20.7323 17.521H21.8838C21.8015 16.5148 20.9388 15.729 19.558 15.6433V14.875H18.9018V15.6625C17.5945 15.7902 16.7055 16.576 16.7055 17.689C16.7055 18.6725 17.367 19.299 18.4678 19.5545L18.9018 19.6612V21.8872C18.2298 21.7857 17.7835 21.4148 17.6838 20.902H16.5165ZM18.8965 18.5325C18.2508 18.3838 17.9008 18.0775 17.9008 17.619C17.9008 17.1045 18.2788 16.7195 18.9018 16.6075V18.5325H18.8965ZM19.6525 19.838C20.4383 20.02 20.7988 20.314 20.7988 20.8337C20.7988 21.427 20.349 21.833 19.558 21.9082V19.817L19.6525 19.838Z" fill="#03586A"/>
<path d="M1.75 0C1.28587 0 0.840752 0.184374 0.512563 0.512563C0.184374 0.840752 0 1.28587 0 1.75L0 15.75C0 16.2141 0.184374 16.6592 0.512563 16.9874C0.840752 17.3156 1.28587 17.5 1.75 17.5H8.89525C8.99675 16.898 9.149 16.3135 9.34675 15.75H5.25C5.25 14.8217 4.88125 13.9315 4.22487 13.2751C3.5685 12.6187 2.67826 12.25 1.75 12.25V5.25C2.67826 5.25 3.5685 4.88125 4.22487 4.22487C4.88125 3.5685 5.25 2.67826 5.25 1.75H22.75C22.75 2.67826 23.1187 3.5685 23.7751 4.22487C24.4315 4.88125 25.3217 5.25 26.25 5.25V11.424C26.915 12.019 27.5047 12.698 28 13.4435V1.75C28 1.28587 27.8156 0.840752 27.4874 0.512563C27.1592 0.184374 26.7141 0 26.25 0L1.75 0Z" fill="#03586A"/>
<path d="M17.4965 8.89524L17.5 8.74999C17.4996 8.14728 17.3436 7.55487 17.0471 7.03014C16.7506 6.50542 16.3236 6.06615 15.8075 5.7549C15.2913 5.44365 14.7036 5.27095 14.1011 5.25354C13.4987 5.23612 12.9019 5.37458 12.3687 5.65551C11.8354 5.93643 11.3838 6.35029 11.0574 6.85702C10.7311 7.36374 10.5411 7.94615 10.506 8.54784C10.4708 9.14953 10.5916 9.7501 10.8567 10.2914C11.1218 10.8327 11.5221 11.2964 12.019 11.6375C13.5306 10.1977 15.4381 9.24274 17.4965 8.89524Z" fill="#03586A"/>
</g>
<defs>
<clipPath id="clip0_18_197">
<rect width="28" height="28" fill="white"/>
</clipPath>
</defs>
</svg>
